# xmcd
#
# Track frame offsets: 
#        150
#        20070
#        42231
#        58672
#        77156
#        101339
#        118889
#        142784
#        166140
#        185502
#        205050
#        224670
#        242648
#        262023
#        280332
#
# Disc length: 3949 seconds
#
# Revision: 0
# Processed by: cddbd v1.5.2PL0 Copyright (c) Steve Scherf et al.
# Submitted via: ExactAudioCopy v1.0b1
#
DISCID=dc0f6b0f
DTITLE=Vortex - Hardcore Madness 5
DYEAR=2002
DGENRE=Hardcore
TTITLE0=Vortex and Rus - Hardcore madness (the hymn)
TTITLE1=Real Men (Dj Holod and Deliverance) - Head out
TTITLE2=Reactor Mc Che Guevara feat Dj Morfy Project - Хулиганы
TTITLE3=Karantin - We belong to the sea (mineral remix)
TTITLE4=Dj Holod - No words
TTITLE5=Toxigen - Атомная романтика (gabbamix '95)
TTITLE6=Defusion - No one follow
TTITLE7=Vortex - In the labyrinth
TTITLE8=Deliverance feat. Embrion - Em sound
TTITLE9=Defusion - Master of fate
TTITLE10=Dj Holod - Рубилово!!!
TTITLE11=Karantin - Teardrops (want 2b in fashion rmx)
TTITLE12=Embrion - When we are die
TTITLE13=Toxigen - Выбор (gabbamix '99)
TTITLE14=Reactor Mc Che Guevara feat Dj Morfy Project - Против!
EXTD=
EXTT0=
EXTT1=
EXTT2=
EXTT3=
EXTT4=
EXTT5=
EXTT6=
EXTT7=
EXTT8=
EXTT9=
EXTT10=
EXTT11=
EXTT12=
EXTT13=
EXTT14=
PLAYORDER=
